<?xml version="1.0" encoding="UTF-8"?>
<svg xmlns="http://www.w3.org/2000/svg" version="1.1" viewBox="0 0 293 293">
  <!-- Generator: Adobe Illustrator 28.7.1, SVG Export Plug-In . SVG Version: 1.2.0 Build 142)  -->
  <g>
    <g id="katman_1">
      <g>
        <path d="M85.4,51.6c-1.8-3.2-2.3-5.9.4-11.6,1.5-3.2,1.7-4.5.9-5.9-1-1.8-2.3-1.7-3.7-.9-1.5.9-2.1,2.2-.8,4.5l-3.3,1.8c-2.1-3.7-1.2-7.2,2.3-9.2,3.5-2,6.8-1.6,8.7,1.8,1.5,2.6,1,4.9-1.2,9.6-.8,1.7-1.1,3.5-.7,4.5l7.5-4.2,1.7,3-11.8,6.6Z" fill="#fff"/>
        <path d="M93.9,35.4c-2.8-6.9-1.6-10.7,2.4-12.3,4-1.6,7.5.3,10.3,7.1,2.8,6.9,1.6,11-2.4,12.6-4,1.6-7.5-.5-10.3-7.4ZM103,31.9c-2.1-5.1-3.7-6.6-5.4-5.9-1.8.7-1.9,2.9.1,8,2.1,5.1,3.7,6.6,5.5,5.9,1.8-.7,1.9-2.9-.2-8Z" fill="#fff"/>
        <path d="M110.7,39.6c-.9-3.6-.7-6.3,3.3-11.1,2.2-2.7,2.8-3.9,2.4-5.5-.5-1.9-1.9-2.2-3.3-1.8-1.7.4-2.6,1.6-1.9,4.2l-3.6,1c-1.1-4.1.6-7.3,4.5-8.3,3.9-1,7,.1,8,3.9.8,2.9-.2,5-3.6,9-1.2,1.5-1.9,3.1-1.8,4.2l8.3-2.2.9,3.3-13.1,3.4Z" fill="#fff"/>
        <path d="M128,35.5l-2.2-13.6-4,.6-.4-2.7c3.4-.5,4.3-1.8,4.2-4.2l3.1-.5,3.1,19.7-3.9.6Z" fill="#fff"/>
        <path d="M132.1,21.4c1.5-.5,2.2-1.5,2-3.4l-2.3.2-.4-4,4.1-.4.3,3c.3,3.4-.6,5.1-3.6,6v-1.5Z" fill="#fff"/>
        <path d="M148.1,34.1v-1.8c-1,1.5-2.3,2.2-4.1,2.3-3.7,0-6.4-2.8-6.5-7.8,0-4.5,2.1-7.7,5.9-7.7,1.8,0,3.3.7,4.4,2.2v-7.3c-.1,0,3.7,0,3.7,0l.3,20.2h-3.8ZM148,27.1c0-3.2-1.2-4.8-3.3-4.7-2.3,0-3.3,1.6-3.3,4.6,0,2.6,1.5,4.4,3.4,4.4,1.9,0,3.3-1.8,3.2-4.3Z" fill="#fff"/>
        <path d="M157.5,28.3c-.2,2.2.9,3.8,2.8,4,1.3.2,2.4-.3,2.8-1.3l4,.5c-1.3,2.9-3.9,4.3-7,3.9-4.9-.6-7-3.6-6.3-8.9.6-4.5,3.5-7.1,8-6.6s6.5,3.8,5.8,9.6l-10.1-1.3ZM163.9,26.6c.2-2.2-1.1-3.4-2.6-3.6-1.5-.2-3,.8-3.4,2.8l6,.7Z" fill="#fff"/>
        <path d="M177,38.4l2.3-8.6c.6-2.2,0-3-1.7-3.5-2-.5-3.2.3-3.8,2.5l-2.1,8.2-3.8-1,3.7-14.3,3.6.9-.5,2.1c1.3-1.4,3-1.9,5.3-1.3,2.7.7,4.3,2.9,3.5,6l-2.6,9.9-3.8-1Z" fill="#fff"/>
        <path d="M188.7,42.3l8.9-17.8,8.8,4.4c3.5,1.7,4.4,4.6,3,7.5-.8,1.5-2.3,2.4-3.8,2.2,1.2,1.3,1.8,3.1.6,5.7-1.6,3.2-4.8,4.2-9.3,2l-8-4ZM198.6,43.4c1.7.9,3.3.3,4-1.2.8-1.6.1-2.8-1.6-3.6l-4.8-2.4-2.4,4.8,4.7,2.4ZM199.7,29.3l-1.9,3.9,4.7,2.3c1.5.7,2.6.5,3.2-.8.7-1.4.2-2.3-1.5-3.2l-4.5-2.2Z" fill="#fff"/>
        <path d="M210.3,46.7c-1.2,1.9-.9,3.8.6,4.9,1,.7,2.3.8,3.1.1l3.3,2.3c-2.5,2-5.4,2-8,.2-4.1-2.8-4.6-6.4-1.5-10.8,2.6-3.8,6.4-4.7,10.1-2.1,3.7,2.6,4,6.3.7,11.2l-8.4-5.8ZM216.8,48.2c1.2-1.8.6-3.5-.7-4.4-1.3-.9-3-.6-4.3,1l5,3.4Z" fill="#fff"/>
        <path d="M215.9,58.6l9.6-11.2,2.8,2.4-1.2,1.3c2.3-.7,3.5.2,4.7,1.2l.4.3-2.6,3c-.2-.3-.5-.5-.8-.8-1.8-1.6-3.5-1.4-5,.4l-5,5.8-3-2.5Z" fill="#fff"/>
        <path d="M223.2,65l10.4-10.5,2.8,2.7-10.4,10.5-2.8-2.7ZM234.8,53.2l2.5-2.6,2.8,2.7-2.5,2.6-2.8-2.7Z" fill="#fff"/>
        <path d="M250,74.8c1.5-1.4,1.6-2.9.1-5-1.4-1.9-2.8-2.4-4-1.5-1,.7-1.1,1.9-.2,4,.9,2.1,1.7,4.2,2.1,5.8.4,1.9.2,3.7-2.1,5.4-3.5,2.6-7.1,1.1-9.8-2.7-2.9-4-3.1-8,.4-10.7l2.4,3.2c-1.6,1.3-1.6,3.4,0,5.5,1.5,2,3.1,2.5,4.6,1.5.9-.7,1.2-1.7.2-4-1-2.3-1.7-3.8-2-5.3-.5-2.3,0-4.1,2-5.6,2.9-2.1,6.4-1.6,9.2,2.3,3,4.1,2.4,8-.6,10.3l-2.3-3.2Z" fill="#fff"/>
        <path d="M241.7,87.8l12.7-7.5,2,3.4-12.7,7.5-2-3.4Z" fill="#fff"/>
        <path d="M248.6,101l8.1-3.8c2.1-1,2.4-1.8,1.6-3.5-.9-1.8-2.3-2.3-4.4-1.3l-7.7,3.6-1.7-3.5,13.4-6.3,1.6,3.4-2,.9c1.9.1,3.3,1.1,4.3,3.2,1.2,2.6.5,5.2-2.4,6.5l-9.3,4.4-1.7-3.6Z" fill="#fff"/>
        <path d="M250.7,106.2l13.9-5,1.3,3.7-13.9,5-1.3-3.7Z" fill="#fff"/>
        <path d="M252.7,111.5l14.2-4.1,1,3.5-1.7.5c2.3.7,2.8,2.1,3.3,3.6v.5c.1,0-3.7,1.1-3.7,1.1,0-.4-.1-.7-.2-1.1-.7-2.3-2.1-3.1-4.4-2.4l-7.4,2.1-1.1-3.7Z" fill="#fff"/>
        <path d="M266.9,126.9c1.4-.5,1.7-1.3,1.4-3.1-.3-1.4-.8-2.2-1.6-2.1s-1.1,1-1.2,2.7c-.2,1.7-.2,3.4-.5,4.6-.3,1.6-1.2,2.7-3.1,3-3,.5-5.2-1.3-6-5.5-.8-4.5.8-7.3,3.8-7.9l.7,4c-1.4.2-1.9,1.5-1.6,3.4.2,1.4.9,2.5,2,2.3,1-.2,1.2-1.3,1.2-2.6.1-2.6.3-4,.8-5.1.6-1.5,1.6-2.2,2.9-2.4,2.5-.4,4.6.9,5.4,5.3.8,4.2-.6,6.4-3.6,7.2l-.7-3.7Z" fill="#fff"/>
        <path d="M257.5,133.9l14.7-1.4.4,3.9-14.7,1.4-.4-3.9Z" fill="#fff"/>
        <path d="M258,138.9h3s8.8,7.3,8.8,7.3v-7c-.1,0,3,0,3,0l.2,12h-3.2c0,0-8.6-7.3-8.6-7.3v7.7c.1,0-3.1,0-3.1,0l-.2-12.7Z" fill="#fff"/>
        <path d="M255.4,171.3l8.8,1.7,1.5-7.6-8.8-1.7.8-4.1,19.6,3.7-.8,4.1-7.4-1.4-1.5,7.6,7.4,1.4-.8,4.1-19.6-3.7.8-4.1Z" fill="#fff"/>
        <path d="M254,176.7l14.1,4.2-1.1,3.7-14.1-4.2,1.1-3.7ZM269.8,181.5l3.5,1-1.1,3.7-3.5-1,1.1-3.7Z" fill="#fff"/>
        <path d="M252.6,181.6l2.8,1.1,5.3,10.2,2.6-6.5,2.9,1.1-4.4,11.2-2.9-1.2-5.1-10.1-2.8,7.2-3-1.2,4.7-11.8Z" fill="#fff"/>
        <path d="M239.1,209.1l7.7,4.5c1.5.9,3.1.7,3.8-.4.7-1.2.1-2.8-1.4-3.7l-7.6-4.5,2-3.4,7.6,4.5c2,1.2,2.9,1,3.7-.5.8-1.3.4-2.5-1.3-3.5l-7.7-4.6,2-3.4,12.7,7.5-1.9,3.2-1.9-1.1c1.2,1.8,1,3.3,0,5-1,1.7-2.1,2.2-4.1,2.3,1,1.5.9,3,0,4.6-1.5,2.6-4.4,3.2-6.8,1.8l-8.8-5.2,1.9-3.3Z" fill="#fff"/>
        <path d="M239,219.9c-1.8-1.3-3.7-1.3-4.9.2-.8,1-1,2.2-.4,3.1l-2.6,3.1c-1.7-2.6-1.5-5.6.5-8,3.2-3.8,6.8-3.9,10.9-.5,3.5,2.9,4.1,6.8,1.2,10.3s-6.7,3.4-11.2-.3l6.5-7.8ZM236.9,226.2c1.7,1.4,3.4.9,4.4-.2,1-1.2.9-3-.6-4.4l-3.9,4.6Z" fill="#fff"/>
        <path d="M227.3,237.1l-2.7,2.5-2.9-3.1c-2.1-2.3-2.7-5.5.3-8.4,3.2-2.9,6.3-2.1,8.5.2l9,9.7-2.8,2.6-2.7-2.9-6,5.6-1.9-2,6-5.6-4.1-4.4c-1.3-1.4-2.5-1.7-3.7-.6-1.1,1.1-1,2.3.3,3.7l2.6,2.8Z" fill="#fff"/>
        <path d="M211.1,237.7l2.3,3.3-3.4,2.4-2.3-3.3,3.4-2.4Z" fill="#fff"/>
        <path d="M201,244.3c1.6,3.3,1.9,6-1.1,11.5-1.7,3.1-2,4.4-1.3,5.9.9,1.8,2.2,1.8,3.6,1.1,1.6-.8,2.2-2.1,1.1-4.5l3.4-1.6c1.9,3.9.8,7.2-2.8,9-3.6,1.8-6.9,1.2-8.6-2.3-1.3-2.7-.7-4.9,1.8-9.5.9-1.7,1.3-3.5.9-4.4l-7.7,3.7-1.5-3.1,12.2-5.9Z" fill="#fff"/>
        <path d="M191.6,259.9c2.4,7.1,1,10.8-3,12.1-4.1,1.4-7.5-.7-9.9-7.7s-1-11.1,3.1-12.4c4.1-1.4,7.5.9,9.9,8ZM182.4,262.9c1.8,5.2,3.3,6.8,5.1,6.2s2.1-2.8.3-8c-1.8-5.3-3.3-6.8-5.1-6.2s-2,2.8-.3,8Z" fill="#fff"/>
        <path d="M175.1,254.9c.7,3.6.4,6.3-3.9,10.9-2.4,2.6-3,3.7-2.7,5.4.4,2,1.7,2.3,3.2,2,1.7-.4,2.7-1.4,2.1-4l3.7-.7c.9,4.2-1,7.2-5,8-3.9.8-7-.5-7.8-4.4-.6-3,.5-5,4.1-8.8,1.3-1.4,2.1-3,2-4l-8.4,1.7-.7-3.3,13.3-2.7Z" fill="#fff"/>
        <path d="M157.5,257.9l1.4,13.7,4.1-.4.3,2.7c-3.4.3-4.4,1.6-4.4,3.9l-3.2.3-2-19.8,3.9-.4Z" fill="#fff"/>
        <path d="M152.7,271.9c-1.5.4-2.2,1.4-2.2,3.3h2.3c0,0,.1,4,.1,4h-4.1c0,.1-.1-2.9-.1-2.9-.1-3.4.8-5,3.9-5.8v1.5Z" fill="#fff"/>
        <path d="M137.4,258.2v1.8c.9-1.5,2.4-2.1,4.2-2,3.7.2,6.2,3.2,6,8.2-.2,4.5-2.6,7.5-6.4,7.3-1.8,0-3.2-.9-4.3-2.5l-.3,7.3-3.8-.2.9-20.1,3.7.2ZM137,265.2c-.2,3.2.9,4.8,3,4.9,2.3.1,3.4-1.4,3.6-4.4.1-2.6-1.2-4.5-3.1-4.6-1.9,0-3.4,1.6-3.5,4.1Z" fill="#fff"/>
        <path d="M127.7,263.5c.3-2.2-.7-3.8-2.6-4.2-1.2-.2-2.4.2-2.9,1.1l-4-.7c1.4-2.8,4.1-4.1,7.2-3.5,4.8.9,6.8,4,5.8,9.2-.8,4.5-3.9,6.9-8.4,6.1s-6.3-4.1-5.2-9.9l10,1.8ZM121.2,264.8c-.3,2.2.9,3.5,2.4,3.7,1.5.3,3-.7,3.5-2.6l-5.9-1.1Z" fill="#fff"/>
        <path d="M108.8,252.3l-2.7,8.5c-.7,2.2-.3,3,1.5,3.5,1.9.6,3.2-.2,3.9-2.3l2.6-8.1,3.7,1.2-4.5,14-3.5-1.1.7-2.1c-1.4,1.3-3.1,1.7-5.3,1-2.7-.9-4.1-3.1-3.1-6.2l3.1-9.7,3.7,1.2Z" fill="#fff"/>
        <path d="M97.3,247.8l-9.9,17.3-8.5-4.9c-3.4-1.9-4.2-4.8-2.5-7.7.8-1.5,2.5-2.2,4-2-1.1-1.4-1.7-3.2-.2-5.7,1.8-3.2,5.1-4,9.4-1.5l7.8,4.4ZM85.7,260.1l2.1-3.8-4.6-2.6c-1.4-.8-2.6-.6-3.3.6-.8,1.3-.4,2.3,1.3,3.2l4.4,2.5ZM87.6,246.1c-1.7-1-3.3-.4-4.1,1-.9,1.5-.3,2.8,1.4,3.7l4.6,2.6,2.7-4.7-4.6-2.6Z" fill="#fff"/>
        <path d="M76,242.1c1.3-1.8,1.1-3.7-.4-4.9-1-.8-2.3-1-3.1-.3l-3.2-2.5c2.6-1.8,5.5-1.7,8,.2,3.9,3,4.2,6.7.9,10.9-2.8,3.6-6.7,4.3-10.2,1.6-3.6-2.8-3.7-6.6-.1-11.2l8,6.2ZM69.6,240.3c-1.3,1.8-.8,3.5.4,4.4,1.2,1,3,.8,4.4-.7l-4.8-3.7Z" fill="#fff"/>
        <path d="M71.1,230l-10.2,10.6-2.6-2.5,1.2-1.3c-2.3.5-3.5-.4-4.7-1.5l-.4-.4,2.8-2.9c.2.3.5.6.7.8,1.7,1.7,3.4,1.6,5,0l5.3-5.5,2.8,2.7Z" fill="#fff"/>
        <path d="M51.9,234.3l-2.7,2.4-2.6-2.9,2.7-2.4,2.6,2.9ZM64.2,223.2l-10.9,9.9-2.6-2.9,10.9-9.9,2.6,2.9Z" fill="#fff"/>
        <path d="M37.9,211.8c-1.6,1.3-1.8,2.9-.4,5,1.3,2,2.6,2.5,3.9,1.7,1.1-.7,1.2-1.8.4-4-.8-2.2-1.5-4.3-1.7-5.9-.3-1.9,0-3.7,2.4-5.2,3.7-2.4,7.1-.7,9.6,3.2,2.7,4.1,2.7,8.2-1,10.7l-2.2-3.4c1.7-1.2,1.8-3.3.4-5.5-1.3-2.1-3-2.7-4.5-1.7-1,.6-1.3,1.6-.4,4,.9,2.4,1.4,3.9,1.7,5.4.4,2.3-.2,4.1-2.3,5.5-3,1.9-6.5,1.3-9.1-2.8-2.7-4.2-2-8.1,1.1-10.3l2.2,3.3Z" fill="#fff"/>
        <path d="M47,199.3l-13.1,6.7-1.8-3.5,13.1-6.7,1.8,3.5Z" fill="#fff"/>
        <path d="M40.8,185.7l-8.3,3.3c-2.1.9-2.5,1.7-1.8,3.4.8,1.9,2.2,2.4,4.3,1.5l7.8-3.2,1.5,3.6-13.7,5.5-1.4-3.5,2-.8c-1.9-.2-3.3-1.3-4.1-3.5-1.1-2.6-.2-5.2,2.7-6.4l9.5-3.8,1.5,3.6Z" fill="#fff"/>
        <path d="M39,180.5l-14.1,4.2-1.1-3.7,14.1-4.2,1.1,3.7Z" fill="#fff"/>
        <path d="M37.4,175.1l-14.4,3.3-.8-3.6,1.7-.4c-2.2-.8-2.7-2.2-3.1-3.8v-.5c-.1,0,3.8-.9,3.8-.9,0,.4,0,.7.1,1.1.5,2.3,2,3.2,4.3,2.7l7.5-1.7.9,3.8Z" fill="#fff"/>
        <path d="M24,158.9c-1.4.4-1.8,1.2-1.6,3,.2,1.5.6,2.2,1.5,2.1s1.1-1,1.4-2.6c.3-1.7.4-3.3.7-4.5.4-1.6,1.3-2.6,3.2-2.8,3-.4,5.1,1.6,5.6,5.8.6,4.5-1.2,7.3-4.2,7.7l-.5-4c1.4-.2,2-1.4,1.8-3.3-.2-1.4-.7-2.5-1.8-2.4-1,.1-1.2,1.3-1.4,2.6-.3,2.5-.5,4-1.1,5.1-.7,1.5-1.8,2.1-3.1,2.3-2.5.3-4.6-1.2-5.1-5.6-.5-4.2.9-6.3,4-6.9l.5,3.7Z" fill="#fff"/>
        <path d="M33.9,152.4l-14.8.5v-3.9c-.1,0,14.6-.5,14.6-.5v3.9Z" fill="#fff"/>
        <path d="M33.5,147.3h-3c0-.1-8.3-8.1-8.3-8.1l-.3,7h-3.1c0-.1.6-12.1.6-12.1h3.1c0,.1,8.1,8.1,8.1,8.1l.4-7.7,3.2.2-.6,12.7Z" fill="#fff"/>
        <path d="M38,115.2l-8.7-2.2-1.9,7.5,8.7,2.2-1,4-19.3-4.9,1-4,7.3,1.8,1.9-7.5-7.3-1.8,1-4.1,19.3,4.9-1,4.1Z" fill="#fff"/>
        <path d="M24.2,104.2l-3.4-1.2,1.3-3.7,3.4,1.2-1.3,3.7ZM39.8,109.9l-13.9-5,1.3-3.7,13.9,5-1.3,3.7Z" fill="#fff"/>
        <path d="M41.4,105.1l-2.7-1.3-4.7-10.5-2.9,6.4-2.8-1.3,5-10.9,2.9,1.3,4.5,10.4,3.3-7,2.9,1.3-5.3,11.5Z" fill="#fff"/>
        <path d="M56.4,78.4l-7.4-5c-1.5-1-3-.9-3.8.2-.8,1.2-.3,2.8,1.2,3.8l7.3,4.9-2.2,3.2-7.4-4.9c-2-1.3-2.8-1.1-3.8.3-.9,1.3-.5,2.5,1.1,3.6l7.5,5-2.2,3.2-12.3-8.2,2-3,1.8,1.2c-1.1-1.9-.8-3.4.3-5,1.1-1.7,2.2-2.1,4.2-2.1-.9-1.6-.8-3.1.3-4.6,1.7-2.5,4.6-3,6.9-1.5l8.5,5.7-2.1,3.2Z" fill="#fff"/>
        <path d="M57.2,67.6c1.7,1.4,3.6,1.5,4.9,0,.9-.9,1.2-2.2.6-3.1l2.7-2.9c1.6,2.7,1.2,5.7-1,8-3.4,3.6-7,3.5-10.9-.1-3.3-3.1-3.7-7-.6-10.3,3.1-3.3,6.9-3,11.2,1l-7,7.4ZM59.6,61.5c-1.6-1.5-3.4-1.1-4.4,0-1.1,1.1-1.1,2.9.3,4.4l4.1-4.4Z" fill="#fff"/>
        <path d="M69.8,51.1l2.8-2.3,2.7,3.2c2,2.4,2.4,5.7-.8,8.4-3.3,2.8-6.4,1.7-8.4-.7l-8.4-10.1,3-2.5,2.6,3.1,6.3-5.2,1.8,2.1-6.3,5.2,3.9,4.7c1.2,1.4,2.4,1.8,3.6.8,1.2-1,1.1-2.3,0-3.7l-2.5-3Z" fill="#fff"/>
      </g>
    </g>
  </g>
</svg>